<?xml version="1.0" encoding="UTF-8" standalone="no"?>
<!-- Created with Inkscape (http://www.inkscape.org/) -->

<svg
   version="1.1"
   id="svg11553"
   width="10317.168"
   height="959.52991"
   viewBox="0 0 10317.168 959.52991"
   sodipodi:docname="shutterstock_2257198827.eps"
   inkscape:export-filename="shutterstock_2257198827.eps.png"
   inkscape:export-xdpi="96"
   inkscape:export-ydpi="96"
   xmlns:inkscape="http://www.inkscape.org/namespaces/inkscape"
   xmlns:sodipodi="http://sodipodi.sourceforge.net/DTD/sodipodi-0.dtd"
   xmlns="http://www.w3.org/2000/svg"
   xmlns:svg="http://www.w3.org/2000/svg">
  <defs
     id="defs11557" />
  <sodipodi:namedview
     id="namedview11555"
     pagecolor="#ffffff"
     bordercolor="#000000"
     borderopacity="0.25"
     inkscape:showpageshadow="2"
     inkscape:pageopacity="0.0"
     inkscape:pagecheckerboard="0"
     inkscape:deskcolor="#d1d1d1"
     showgrid="false" />
  <g
     id="g11561"
     inkscape:groupmode="layer"
     inkscape:label="Page 1"
     transform="matrix(1.3333333,0,0,-1.3333333,-41.418266,2479.765)">
    <g
       id="g11563"
       transform="scale(0.1)">
      <path
         d="m 355.637,14018 c 1647.513,689.6 1984.163,140.9 3631.683,-165.6 1647.52,-306.5 4846.77,574.7 4195.43,1187.8 -651.35,613 -995.53,-812.6 -134.2,-1148.7 800.54,-312.4 2281.45,1014.2 4158.85,-58.6 2261.9,-1292.5 4073.6,465.4 6623.3,519.6 2549.7,54.3 2278.5,-2007.2 1464.7,-1302 -813.7,705.3 2114.4,2536.9 5594.4,976.9 3293.5,-1476.5 4994.2,10.2 5733.6,247 667.1,213.6 2452.247,558.078 4305.347,540.978 1247.145,-856.262 342.609,-619.317 3416.04,-1932.495 -353.694,-784.226 -1106.795,-1101.044 -3157.087,-1362.483 -2556.7,-326 -5199.2,497.6 -5731.1,1166.8 -824.3,1037 -531.9,2265 17.2,2796.9 549.1,531.9 2070.5,1126.8 4438.4,1023.8 240.441,33.213 755.898,279.434 694.381,65.54 -892.057,-3101.675 4475.947,-2868.584 323.719,-2942.54 -2831.2,-68.6 -5700.1,731.3 -5785.9,1606.4 -85.8,875.1 2582.9,1682.4 5339.8,1465.1 2028.8,-160 3980.8,-574.9 5679.5,-1312.7 1698.8,-737.8 2316.5,-1123.9 2299.3,-1192.5 -17.1,-68.7 -1389.8,-92.2 -3071.4,528.7 -1681.6,620.9 -3980.9,2233.9 -4015.2,2937.4 -34.3,703.5 1818.9,990.7 4015.2,263.7 2196.3,-727 4529.9,-2340 4632.9,-3077.8 102.9,-737.8 -1288.1,-627.5 -1364.1,-737.8 -104.5,-151.6 1279.6,-225 1440.3,348.9 93,332.1 318.4,-572 -599.6,-1773.1 -918,-1201.1 -3406,-480.4 -5018.9,120.1 -651.215,242.48 -1377.93,582.839 -2028.842,955.594 -961.339,550.525 -1757.334,1171.713 -1900.558,1652.606 -240.2,806.4 302.1,2052.6 600.5,2511.5 391.4,601.7 1708.5,964.3 4327.7,167 1952.5,-594.4 3984.3,-1976.2 4782.8,-2994.1 1012.8,-1291 2397.4,-1793.4 4491.5,-2059.9 2316,-294.8 2995.2,-112.1 3265.3,-470.8 261.5,-347.1 -196.3,-659.2 -425.2,-263.9 -123.4,213.2 -313.3,697.2 366.6,1186.5 1069.1,769.3 2983.3,821.4 4540.6,103.3 1746.1,-805.1 4479.1,-1207.4 5470.2,-291.1 728.7,673.7 -244.6,1012.7 -374.5,31.2 -140.4,-1061.1 2668.3,-1510.7 4619.1,-686.6 1828.7,772.5 3043.7,976.5 4447.5,884.3 2059.8,-135.3 3730.8,-1020.1 5979.5,-499.7"
         style="fill:none;stroke:#ffffff;stroke-width:90;stroke-linecap:round;stroke-linejoin:round;stroke-miterlimit:10;stroke-dasharray:none;stroke-opacity:1"
         id="path11567"
         sodipodi:nodetypes="cscccccccccccscscscccsssccsscscccccccccsccsc"
         inkscape:export-filename="./path11567.svg"
         inkscape:export-xdpi="96"
         inkscape:export-ydpi="96" />
    </g>
  </g>
</svg>
